<svg width="86" height="40" viewBox="0 0 86 40" fill="none" xmlns="http://www.w3.org/2000/svg">
<path d="M1.848 25V7.12H7.704C9.56 7.12 11.168 7.496 12.528 8.248C13.904 8.984 14.968 10.024 15.72 11.368C16.472 12.712 16.848 14.272 16.848 16.048C16.848 17.808 16.472 19.368 15.72 20.728C14.968 22.072 13.904 23.12 12.528 23.872C11.168 24.624 9.56 25 7.704 25H1.848ZM4.68 22.48H7.752C9.016 22.48 10.112 22.216 11.04 21.688C11.984 21.16 12.712 20.416 13.224 19.456C13.736 18.496 13.992 17.36 13.992 16.048C13.992 14.736 13.728 13.608 13.2 12.664C12.688 11.704 11.968 10.96 11.04 10.432C10.112 9.904 9.016 9.64 7.752 9.64H4.68V22.48ZM25.6371 25.288C24.3891 25.288 23.2451 24.992 22.2051 24.4C21.1811 23.808 20.3651 23 19.7571 21.976C19.1491 20.952 18.8451 19.792 18.8451 18.496C18.8451 17.184 19.1491 16.024 19.7571 15.016C20.3651 13.992 21.1811 13.192 22.2051 12.616C23.2291 12.024 24.3731 11.728 25.6371 11.728C26.9171 11.728 28.0611 12.024 29.0691 12.616C30.0931 13.192 30.9011 13.992 31.4931 15.016C32.1011 16.024 32.4051 17.184 32.4051 18.496C32.4051 19.808 32.1011 20.976 31.4931 22C30.8851 23.024 30.0691 23.832 29.0451 24.424C28.0211 25 26.8851 25.288 25.6371 25.288ZM25.6371 22.768C26.4051 22.768 27.0851 22.584 27.6771 22.216C28.2691 21.848 28.7331 21.344 29.0691 20.704C29.4211 20.048 29.5971 19.312 29.5971 18.496C29.5971 17.68 29.4211 16.952 29.0691 16.312C28.7331 15.672 28.2691 15.168 27.6771 14.8C27.0851 14.432 26.4051 14.248 25.6371 14.248C24.8851 14.248 24.2051 14.432 23.5971 14.8C23.0051 15.168 22.5331 15.672 22.1811 16.312C21.8451 16.952 21.6771 17.68 21.6771 18.496C21.6771 19.312 21.8451 20.048 22.1811 20.704C22.5331 21.344 23.0051 21.848 23.5971 22.216C24.2051 22.584 24.8851 22.768 25.6371 22.768ZM41.2208 25.288C39.9248 25.288 38.7728 24.992 37.7648 24.4C36.7728 23.792 35.9808 22.976 35.3888 21.952C34.8128 20.928 34.5248 19.768 34.5248 18.472C34.5248 17.192 34.8128 16.04 35.3888 15.016C35.9648 13.992 36.7568 13.192 37.7648 12.616C38.7728 12.024 39.9248 11.728 41.2208 11.728C42.1008 11.728 42.9248 11.888 43.6928 12.208C44.4608 12.512 45.1248 12.936 45.6848 13.48C46.2608 14.024 46.6848 14.656 46.9568 15.376L44.5808 16.48C44.3088 15.808 43.8688 15.272 43.2608 14.872C42.6688 14.456 41.9888 14.248 41.2208 14.248C40.4848 14.248 39.8208 14.432 39.2288 14.8C38.6528 15.152 38.1968 15.656 37.8608 16.312C37.5248 16.952 37.3568 17.68 37.3568 18.496C37.3568 19.312 37.5248 20.048 37.8608 20.704C38.1968 21.344 38.6528 21.848 39.2288 22.216C39.8208 22.584 40.4848 22.768 41.2208 22.768C42.0048 22.768 42.6848 22.568 43.2608 22.168C43.8528 21.752 44.2928 21.2 44.5808 20.512L46.9568 21.64C46.7008 22.328 46.2848 22.952 45.7088 23.512C45.1488 24.056 44.4848 24.488 43.7168 24.808C42.9488 25.128 42.1168 25.288 41.2208 25.288ZM49.6074 25V6.832H52.3194V19L51.2634 18.736L57.7674 12.016H61.1514L56.2554 17.224L61.3674 25H58.2474L53.6874 18.112L55.2954 17.896L51.4554 21.976L52.3194 20.176V25H49.6074ZM69.0863 25.288C67.7903 25.288 66.6383 24.992 65.6303 24.4C64.6383 23.792 63.8623 22.976 63.3023 21.952C62.7423 20.912 62.4623 19.752 62.4623 18.472C62.4623 17.16 62.7423 16 63.3023 14.992C63.8783 13.984 64.6463 13.192 65.6063 12.616C66.5663 12.024 67.6543 11.728 68.8703 11.728C69.8463 11.728 70.7183 11.896 71.4863 12.232C72.2543 12.568 72.9023 13.032 73.4303 13.624C73.9583 14.2 74.3583 14.864 74.6302 15.616C74.9183 16.368 75.0623 17.168 75.0623 18.016C75.0623 18.224 75.0543 18.44 75.0383 18.664C75.0223 18.888 74.9903 19.096 74.9423 19.288H64.5983V17.128H73.4062L72.1103 18.112C72.2703 17.328 72.2143 16.632 71.9423 16.024C71.6863 15.4 71.2863 14.912 70.7423 14.56C70.2143 14.192 69.5903 14.008 68.8703 14.008C68.1503 14.008 67.5103 14.192 66.9503 14.56C66.3903 14.912 65.9583 15.424 65.6543 16.096C65.3503 16.752 65.2303 17.552 65.2943 18.496C65.2143 19.376 65.3343 20.144 65.6543 20.8C65.9903 21.456 66.4543 21.968 67.0463 22.336C67.6543 22.704 68.3423 22.888 69.1103 22.888C69.8943 22.888 70.5583 22.712 71.1023 22.36C71.6623 22.008 72.1023 21.552 72.4223 20.992L74.6302 22.072C74.3743 22.68 73.9743 23.232 73.4303 23.728C72.9023 24.208 72.2623 24.592 71.5103 24.88C70.7743 25.152 69.9663 25.288 69.0863 25.288ZM83.325 25.144C81.965 25.144 80.909 24.76 80.157 23.992C79.405 23.224 79.029 22.144 79.029 20.752V14.464H76.749V12.016H77.109C77.717 12.016 78.189 11.84 78.525 11.488C78.861 11.136 79.029 10.656 79.029 10.048V9.04H81.741V12.016H84.693V14.464H81.741V20.632C81.741 21.08 81.813 21.464 81.957 21.784C82.101 22.088 82.333 22.328 82.653 22.504C82.973 22.664 83.389 22.744 83.901 22.744C84.029 22.744 84.173 22.736 84.333 22.72C84.493 22.704 84.645 22.688 84.789 22.672V25C84.565 25.032 84.317 25.064 84.045 25.096C83.773 25.128 83.533 25.144 83.325 25.144Z" fill="black"/>
<rect x="1" y="30" width="10" height="10" rx="5" fill="#FBBF24"/>
<rect x="15" y="30" width="10" height="10" rx="5" fill="#FB923C"/>
<rect x="29" y="30" width="10" height="10" rx="5" fill="#C084FC"/>
<rect x="43" y="30" width="10" height="10" rx="5" fill="#A3E635"/>
<rect x="57" y="30" width="10" height="10" rx="5" fill="#4ADE80"/>
</svg>
